HIERARCHY
ROOT Hips
{
    OFFSET   0.000000   0.000000   0.000000
    CHANNELS 6 Xposition Yposition Zposition Zrotation Xrotation Yrotation
    JOINT Chest
    {
        OFFSET   0.000000   8.007230   0.000000
        CHANNELS 3 Zrotation Xrotation Yrotation
        JOINT Chest2
        {
            OFFSET   0.000000  22.077100   0.000000
            CHANNELS 3 Zrotation Xrotation Yrotation
            JOINT Neck
            {
                OFFSET   0.000000  23.254800  -0.000021
                CHANNELS 3 Zrotation Xrotation Yrotation
                JOINT Head
                {
                    OFFSET   0.000000  14.370000   1.956610
                    CHANNELS 3 Zrotation Xrotation Yrotation
                    End Site
                    {
                        OFFSET   0.000000  19.566000   0.000000
                    }
                }
            }
            JOINT LeftCollar
            {
                OFFSET   3.911900  19.017000  -0.467063
                CHANNELS 3 Zrotation Xrotation Yrotation
                JOINT LeftShoulder
                {
                    OFFSET  10.383700   0.000000   0.000000
                    CHANNELS 3 Zrotation Xrotation Yrotation
                    JOINT LeftElbow
                    {
                        OFFSET  26.662100   0.001529   0.000325
                        CHANNELS 3 Zrotation Xrotation Yrotation
                        JOINT LeftWrist
                        {
                            OFFSET  28.869000  -0.000011  -0.000096
                            CHANNELS 3 Zrotation Xrotation Yrotation
                            JOINT LeftFinger0
                            {
                                OFFSET   2.044650  -2.323460   3.252850
                                CHANNELS 3 Zrotation Xrotation Yrotation
                                JOINT LeftFinger01
                                {
                                    OFFSET   3.088130   0.000000   0.000000
                                    CHANNELS 3 Zrotation Xrotation Yrotation
                                    JOINT LeftFinger02
                                    {
                                        OFFSET   2.639460   0.000000   0.000000
                                        CHANNELS 3 Zrotation Xrotation Yrotation
                                        End Site
                                        {
                                            OFFSET   2.582190   0.000000   0.000000
                                        }
                                    }
                                }
                            }
                            JOINT LeftFinger1
                            {
                                OFFSET   8.364480   0.000000   3.252850
                                CHANNELS 3 Zrotation Xrotation Yrotation
                                JOINT LeftFinger11
                                {
                                    OFFSET   4.646930   0.000000   0.000000
                                    CHANNELS 3 Zrotation Xrotation Yrotation
                                    JOINT LeftFinger12
                                    {
                                        OFFSET   2.323460   0.000000   0.000000
                                        CHANNELS 3 Zrotation Xrotation Yrotation
                                        End Site
                                        {
                                            OFFSET   2.273050   0.000000   0.000000
                                        }
                                    }
                                }
                            }
                            JOINT LeftFinger2
                            {
                                OFFSET   8.364480   0.000016   1.078090
                                CHANNELS 3 Zrotation Xrotation Yrotation
                                JOINT LeftFinger21
                                {
                                    OFFSET   5.111620   0.000000   0.000000
                                    CHANNELS 3 Zrotation Xrotation Yrotation
                                    JOINT LeftFinger22
                                    {
                                        OFFSET   2.788160   0.000017   0.000000
                                        CHANNELS 3 Zrotation Xrotation Yrotation
                                        End Site
                                        {
                                            OFFSET   2.727660   0.000000   0.000000
                                        }
                                    }
                                }
                            }
                            JOINT LeftFinger3
                            {
                                OFFSET   7.899780   0.000015  -1.078090
                                CHANNELS 3 Zrotation Xrotation Yrotation
                                JOINT LeftFinger31
                                {
                                    OFFSET   4.646920   0.000000   0.000000
                                    CHANNELS 3 Zrotation Xrotation Yrotation
                                    JOINT LeftFinger32
                                    {
                                        OFFSET   2.323470   0.000000   0.000000
                                        CHANNELS 3 Zrotation Xrotation Yrotation
                                        End Site
                                        {
                                            OFFSET   2.273050   0.000000   0.000000
                                        }
                                    }
                                }
                            }
                            JOINT LeftFinger4
                            {
                                OFFSET   7.435090   0.000000  -3.252850
                                CHANNELS 3 Zrotation Xrotation Yrotation
                                JOINT LeftFinger41
                                {
                                    OFFSET   3.717550   0.000000   0.000000
                                    CHANNELS 3 Zrotation Xrotation Yrotation
                                    JOINT LeftFinger42
                                    {
                                        OFFSET   1.858760   0.000000   0.000000
                                        CHANNELS 3 Zrotation Xrotation Yrotation
                                        End Site
                                        {
                                            OFFSET   1.818440   0.000000   0.000000
                                        }
                                    }
                                }
                            }
                        }
                    }
                }
            }
            JOINT RightCollar
            {
                OFFSET  -3.911900  19.017000  -0.467062
                CHANNELS 3 Zrotation Xrotation Yrotation
                JOINT RightShoulder
                {
                    OFFSET -10.383700   0.000015   0.000000
                    CHANNELS 3 Zrotation Xrotation Yrotation
                    JOINT RightElbow
                    {
                        OFFSET -26.662100   0.001341   0.000385
                        CHANNELS 3 Zrotation Xrotation Yrotation
                        JOINT RightWrist
                        {
                            OFFSET -28.869000   0.000025  -0.000080
                            CHANNELS 3 Zrotation Xrotation Yrotation
                            JOINT RightFinger0
                            {
                                OFFSET  -2.044650  -2.323490   3.252850
                                CHANNELS 3 Zrotation Xrotation Yrotation
                                JOINT RightFinger01
                                {
                                    OFFSET  -3.088130   0.000000   0.000000
                                    CHANNELS 3 Zrotation Xrotation Yrotation
                                    JOINT RightFinger02
                                    {
                                        OFFSET  -2.639460   0.000000   0.000000
                                        CHANNELS 3 Zrotation Xrotation Yrotation
                                        End Site
                                        {
                                            OFFSET  -2.582190   0.000000   0.000000
                                        }
                                    }
                                }
                            }
                            JOINT RightFinger1
                            {
                                OFFSET  -8.364480   0.000000   3.252850
                                CHANNELS 3 Zrotation Xrotation Yrotation
                                JOINT RightFinger11
                                {
                                    OFFSET  -4.646930   0.000000   0.000000
                                    CHANNELS 3 Zrotation Xrotation Yrotation
                                    JOINT RightFinger12
                                    {
                                        OFFSET  -2.323470   0.000000   0.000000
                                        CHANNELS 3 Zrotation Xrotation Yrotation
                                        End Site
                                        {
                                            OFFSET  -2.273050   0.000000   0.000000
                                        }
                                    }
                                }
                            }
                            JOINT RightFinger2
                            {
                                OFFSET  -8.364480   0.000000   1.078090
                                CHANNELS 3 Zrotation Xrotation Yrotation
                                JOINT RightFinger21
                                {
                                    OFFSET  -5.111610   0.000000   0.000000
                                    CHANNELS 3 Zrotation Xrotation Yrotation
                                    JOINT RightFinger22
                                    {
                                        OFFSET  -2.788160   0.000000   0.000000
                                        CHANNELS 3 Zrotation Xrotation Yrotation
                                        End Site
                                        {
                                            OFFSET  -2.727660   0.000000   0.000000
                                        }
                                    }
                                }
                            }
                            JOINT RightFinger3
                            {
                                OFFSET  -7.899780   0.000000  -1.078090
                                CHANNELS 3 Zrotation Xrotation Yrotation
                                JOINT RightFinger31
                                {
                                    OFFSET  -4.646920   0.000000   0.000000
                                    CHANNELS 3 Zrotation Xrotation Yrotation
                                    JOINT RightFinger32
                                    {
                                        OFFSET  -2.323470   0.000000   0.000000
                                        CHANNELS 3 Zrotation Xrotation Yrotation
                                        End Site
                                        {
                                            OFFSET  -2.273050   0.000000   0.000000
                                        }
                                    }
                                }
                            }
                            JOINT RightFinger4
                            {
                                OFFSET  -7.435090   0.000000  -3.252850
                                CHANNELS 3 Zrotation Xrotation Yrotation
                                JOINT RightFinger41
                                {
                                    OFFSET  -3.717550   0.000000   0.000000
                                    CHANNELS 3 Zrotation Xrotation Yrotation
                                    JOINT RightFinger42
                                    {
                                        OFFSET  -1.858770   0.000000   0.000000
                                        CHANNELS 3 Zrotation Xrotation Yrotation
                                        End Site
                                        {
                                            OFFSET  -1.818440   0.000000   0.000000
                                        }
                                    }
                                }
                            }
                        }
                    }
                }
            }
        }
    }
    JOINT LeftHip
    {
        OFFSET   9.783010   0.000000   0.000000
        CHANNELS 3 Zrotation Xrotation Yrotation
        JOINT LeftKnee
        {
            OFFSET   0.000070 -41.789100   0.000028
            CHANNELS 3 Zrotation Xrotation Yrotation
            JOINT LeftAnkle
            {
                OFFSET   0.000087 -41.133200  -0.000100
                CHANNELS 3 Zrotation Xrotation Yrotation
                JOINT LeftToe
                {
                    OFFSET   0.000000  -6.358960  14.674500
                    CHANNELS 3 Zrotation Xrotation Yrotation
                    End Site
                    {
                        OFFSET   0.000000   0.000000   3.913200
                    }
                }
            }
        }
    }
    JOINT RightHip
    {
        OFFSET  -9.783020   0.000000   0.000000
        CHANNELS 3 Zrotation Xrotation Yrotation
        JOINT RightKnee
        {
            OFFSET   0.000044 -41.789100  -0.000870
            CHANNELS 3 Zrotation Xrotation Yrotation
            JOINT RightAnkle
            {
                OFFSET  -0.000090 -41.133200  -0.000245
                CHANNELS 3 Zrotation Xrotation Yrotation
                JOINT RightToe
                {
                    OFFSET   0.000000  -6.358960  14.674500
                    CHANNELS 3 Zrotation Xrotation Yrotation
                    End Site
                    {
                        OFFSET   0.000000   0.000000   3.913200
                    }
                }
            }
        }
    }
}
MOTION
Frames: 4
Frame Time:   0.016667
  2.869170  89.140900  -0.111401  -7.507710 -18.111800 -18.788100   0.588544  11.942300  -2.407750   1.762200  23.847000  -5.116550  -0.848458  -0.840725  -0.013470  -1.394640  -1.703590  21.855500  -7.464900  -2.695380   3.560760 -67.475300  17.212800 -49.909500  10.095300  -0.227025 -56.477900   4.987670 -19.932900  -9.792490  44.800000  18.323300 -43.254700 -10.365100  -0.000801   0.001301  -0.182575   0.000000   0.000167  -2.391580  -0.291555   7.045510  -1.971130   0.000403  -0.000713  -1.379810  -0.004594  -0.001282 -12.238600  -1.751450   8.035230 -12.361900  -0.000122   0.007062  -8.233030  -0.001218  -0.002907   3.351360   0.487088   8.208190  -0.000000  -0.004654  -0.000728   0.001109  -0.003219  -0.001479  -2.317650  -0.364471   8.997310  -3.518860  -0.000116  -0.000683  -2.343550   0.000000  -0.004087  10.750300   0.431547  13.200100  66.073400   1.307940  45.379700 -15.208800 -10.139400  62.142900 -12.920300 -12.031100  15.602200 -37.240400  16.586600  56.851500  -2.746620   0.003776  -0.000283  -6.373300  -0.001325   0.005980   0.943145  -0.036853  -2.200360   0.771198   0.009483  -0.001116   0.539851   0.006575  -0.006237   1.154470  -0.044247  -2.242730   1.154070   0.003480   0.005147   0.768583   0.001769   0.004278   1.002110  -0.037830  -2.242830   1.001620   0.003307   0.000226   0.667064   0.002177  -0.011687   2.298390  -0.093043  -2.347480   3.448590   0.003051   0.007552   2.296770   0.001985   0.001555   2.040950  22.449400   3.738480  -1.024880   2.776910  22.801600  -0.944728  -6.300830   6.846770  -0.000000   0.000000   0.000000   0.755484  11.558700  -4.636300  -6.777870  14.631500   0.499173   4.377400  -6.008330  10.464700   0.000000   0.000000  -0.000000
  2.869510  89.141500  -0.111545  -7.539540 -18.149900 -18.832900   0.589263  11.939900  -2.421060   1.766240  23.842000  -5.144140  -0.897875  -0.764170  -0.013806  -1.468840  -1.548330  21.966300  -7.389330  -2.605710   3.508430 -66.924500  17.281600 -50.030700   9.637140  -0.330704 -55.516700   4.921470 -20.237500  -9.825630  44.754900  18.260400 -43.345800  -9.918970  -0.000778   0.001214   0.040497   0.000040   0.000162  -2.255440  -0.267071   6.794130  -1.858960   0.000437  -0.000678  -1.301290  -0.004641  -0.001283 -12.070100  -1.687530   7.808500 -12.180500  -0.000091   0.007167  -8.112210  -0.001210  -0.002906   3.703670   0.513144   7.971310  -0.000000  -0.004642  -0.000696   0.001059  -0.003209  -0.001473  -2.169150  -0.333893   8.661400  -3.293990  -0.000135  -0.000652  -2.193780   0.000000  -0.004115  10.787400   0.334662  13.166600  65.512800   1.518800  45.369800 -14.768000  -9.637030  60.754800 -12.879100 -12.910400  15.545300 -37.257100  16.789600  57.024500  -3.221320   0.003770  -0.000289  -6.610650  -0.001357   0.006073   0.953643  -0.034861  -2.063700   0.780640   0.009501  -0.001109   0.546458   0.006605  -0.006278   1.047340  -0.039419  -2.080440   1.047440   0.003466   0.005164   0.697584   0.001755   0.004305   0.824606  -0.032304  -2.080490   0.824723   0.003308   0.000213   0.549249   0.002167  -0.011790   2.196700  -0.082808  -2.120140   3.295750   0.003025   0.007610   2.194970   0.001970   0.001581   2.032940  22.506700   3.752700  -1.026450   2.774510  22.815800  -0.941558  -6.318860   6.855680   0.000000   0.000000   0.000000   0.767561  11.629900  -4.578930  -6.778890  14.600900   0.490848   4.384770  -6.007310  10.449300   0.000000   0.000000   0.000000
  2.871900  89.142500  -0.112550  -7.576640 -18.189100 -18.898000   0.589705  11.939600  -2.424600   1.768240  23.841200  -5.151610  -0.933294  -0.719782  -0.014117  -1.533870  -1.458330  22.020700  -7.351580  -2.542840   3.430970 -66.552600  17.374200 -50.113800   9.303570  -0.480127 -54.993800   4.855100 -20.403900  -9.933740  44.563600  18.166100 -43.661600  -9.237020  -0.000727   0.001186   0.381490   0.000089   0.000158  -2.070810  -0.223964   6.176230  -1.705840   0.000476  -0.000644  -1.194100  -0.004686  -0.001284 -11.945100  -1.547640   7.232470 -12.046400  -0.000070   0.007272  -8.022930  -0.001198  -0.002905   4.061410   0.522872   7.377130  -0.000000  -0.004631  -0.000662   0.001014  -0.003190  -0.001469  -2.024350  -0.287114   7.994710  -3.069110  -0.000137  -0.000620  -2.044010   0.000000  -0.004144  10.842000   0.185775  13.117300  65.124300   1.716120  45.359000 -14.276300  -9.308260  59.906600 -12.981100 -13.534600  15.570200 -37.273400  17.242400  57.474900  -4.180350   0.003763  -0.000294  -7.090160  -0.001388   0.006162   0.958208  -0.027169  -1.576050   0.784349   0.009522  -0.001102   0.549052   0.006637  -0.006320   0.940567  -0.028092  -1.569360   0.940806   0.003448   0.005184   0.626585   0.001741   0.004332   0.699623  -0.021287  -1.569320   0.699828   0.003309   0.000199   0.466073   0.002160  -0.011893   2.040800  -0.058770  -1.530230   3.061370   0.003000   0.007668   2.038860   0.001957   0.001607   2.025760  22.567800   3.763060  -1.028880   2.768830  22.837600  -0.936526  -6.335620   6.882390  -0.000000   0.000000  -0.000000   0.776632  11.701500  -4.536870  -6.781980  14.562500   0.484995   4.397680  -6.004350  10.447000   0.000000   0.000000   0.000000
  2.881950  89.143500  -0.124202  -7.619710 -18.227200 -18.991900   0.588841  11.983800  -2.398890   1.764150  23.930200  -5.100210  -0.940204  -0.765110  -0.014402  -1.554870  -1.550010  22.011600  -7.378290  -2.530410   3.382110 -66.467500  17.508700 -50.045700   9.386530  -0.563347 -55.039400   4.806610 -20.377900 -10.244200  44.383800  18.357200 -44.405400  -8.760420  -0.000662   0.001130   0.619812   0.000100   0.000158  -2.011460  -0.181596   5.175300  -1.654200   0.000517  -0.000614  -1.157940  -0.004736  -0.001286 -12.083200  -1.348300   6.270570 -12.152800  -0.000070   0.007371  -8.093810  -0.001177  -0.002903   4.082120   0.472401   6.396720  -0.000000  -0.004616  -0.000623   0.000960  -0.003174  -0.001469  -2.058080  -0.257119   7.165390  -3.112150  -0.000069  -0.000587  -2.072670   0.000000  -0.004171  10.873500   0.074784  13.087400  65.082100   1.793140  45.155200 -13.969700  -9.382210  59.959300 -13.119200 -13.345100  15.967100 -37.262500  18.028100  58.408200  -5.461610   0.003745  -0.000294  -7.730810  -0.001414   0.006247   0.963844  -0.009653  -0.484190   0.788901   0.009560  -0.001105   0.552234   0.006671  -0.006360   0.946217  -0.010160  -0.503193   0.946096   0.003422   0.005217   0.630109   0.001724   0.004356   0.745278  -0.007580  -0.503042   0.746211   0.003298   0.000200   0.496962   0.002161  -0.012003   1.924790  -0.019637  -0.455219   2.888010   0.002973   0.007718   1.923420   0.001939   0.001637   2.011860  22.630000   3.761910  -1.031990   2.759310  22.877900  -0.926688  -6.349410   6.930920   0.000000   0.000000   0.000000   0.780231  11.740400  -4.527560  -6.799040  14.553300   0.518760   4.414320  -6.000210  10.471600   0.000000   0.000000   0.000000
